# xmcd
#
# Track frame offsets:
#	150
#	12812
#	25815
#	41077
#	59895
#	71837
#	85160
#	101467
#	112475
#	143125
#	154255
#	169197
#	183295
#	198290
#	208115
#	220447
#	237697
#	251400
#
# Disc length: 3817 seconds
#
# Revision: 0
# Processed by: cddbd v1.4PL0 Copyright (c) Steve Scherf et al.
# Submitted via: dBpowerAMP V4.0
#
DISCID=130ee712
DTITLE=Banda Boom Vol 3 - Las Quebraditas Mas Calientes
DYEAR=2002
DGENRE=Quebraditas
TTITLE0=Eva Maria
TTITLE1=La Falda Cortita
TTITLE2=Con Musica Romantica
TTITLE3=Lastima Que Seas Ajena
TTITLE4=Tesoro
TTITLE5=Mitad Tu,Mitad Yo
TTITLE6=Se Remata El Jacalito
TTITLE7=Ven Y Ven
TTITLE8=Boom Medley:la carta,la culebra,la hora del jerk,qebradita,en el  mar,
TTITLE9=Me Gustas.
TTITLE10=Mi Corazon LLoro
TTITLE11=Amor Limosnero
TTITLE12=Sacudeme
TTITLE13=El Esclavo
TTITLE14=Tu Castigo
TTITLE15=Si Ya No Te Vuelvo A Ver.
TTITLE16=Como La Luna.
TTITLE17=Boom Remix
EXTD=
EXTT0=
EXTT1=
EXTT2=
EXTT3=
EXTT4=
EXTT5=
EXTT6=
EXTT7=
EXTT8=
EXTT9=
EXTT10=
EXTT11=
EXTT12=
EXTT13=
EXTT14=
EXTT15=
EXTT16=
EXTT17=
PLAYORDER=
